<?xml version="1.0" encoding="utf-8"?>
<!-- Generator: Adobe Illustrator 24.3.0, SVG Export Plug-In . SVG Version: 6.00 Build 0)  -->
<svg version="1.1" id="Layer_1" xmlns="http://www.w3.org/2000/svg" xmlns:xlink="http://www.w3.org/1999/xlink" x="0px" y="0px"
	 viewBox="0 0 58 100" style="enable-background:new 0 0 58 100;" xml:space="preserve">
<style type="text/css">
	.st0{fill:#FFFFFF;}
</style>
<g>
	<path class="st0" d="M21.3,58.8h11c3.8,0,6.2-2.4,6.2-6c0-4.4-3.5-5.6-7.2-5.6h-10V58.8z M21.3,43.4h8.8c5,0,7-1.8,7-5.4
		c0-4.7-3.2-5.3-7-5.3h-8.8V43.4z M16.9,29h12c2.9,0,6.8,0,8.7,1.2c2.2,1.3,3.9,3.7,3.9,7c0,3.6-1.8,6.3-4.9,7.5v0.1
		c4.1,0.8,6.3,3.9,6.3,8.1c0,4.9-3.5,9.6-10,9.6h-16V29z"/>
	<path class="st0" d="M29,16.3c-16,0-28.9,13.2-28.9,29.4c0,16.2,13,29.4,28.9,29.4c16,0,29-13.2,29-29.4C58,29.5,45,16.3,29,16.3
		 M54.2,45.8c0,14.1-11.3,25.5-25.1,25.5c-13.9,0-25.1-11.4-25.1-25.5c0-14.1,11.3-25.5,25.1-25.5C42.9,20.2,54.2,31.7,54.2,45.8"/>
	<rect x="0.2" y="81.4" class="st0" width="57.8" height="3.9"/>
	<path class="st0" d="M54.6,76.5c0.1-0.2,0.2-0.4,0.4-0.6c0.2-0.2,0.3-0.3,0.6-0.4c0.2-0.1,0.4-0.1,0.7-0.1c0.2,0,0.5,0,0.7,0.1
		c0.2,0.1,0.4,0.2,0.5,0.4c0.2,0.2,0.3,0.3,0.4,0.6c0.1,0.2,0.1,0.4,0.1,0.7c0,0.3,0,0.5-0.1,0.7c-0.1,0.2-0.2,0.4-0.4,0.6
		c-0.2,0.2-0.3,0.3-0.5,0.4c-0.2,0.1-0.4,0.1-0.7,0.1c-0.2,0-0.5,0-0.7-0.1c-0.2-0.1-0.4-0.2-0.6-0.4c-0.2-0.2-0.3-0.3-0.4-0.6
		c-0.1-0.2-0.1-0.4-0.1-0.7C54.4,77,54.5,76.8,54.6,76.5 M54.9,77.8c0.1,0.2,0.2,0.3,0.3,0.5c0.1,0.1,0.3,0.2,0.5,0.3
		c0.2,0.1,0.4,0.1,0.6,0.1c0.2,0,0.4,0,0.6-0.1c0.2-0.1,0.3-0.2,0.5-0.3c0.1-0.1,0.2-0.3,0.3-0.5c0.1-0.2,0.1-0.4,0.1-0.6
		c0-0.2,0-0.4-0.1-0.6c-0.1-0.2-0.2-0.3-0.3-0.5c-0.1-0.1-0.3-0.2-0.5-0.3c-0.2-0.1-0.4-0.1-0.6-0.1c-0.2,0-0.4,0-0.6,0.1
		c-0.2,0.1-0.3,0.2-0.5,0.3c-0.1,0.1-0.2,0.3-0.3,0.5c-0.1,0.2-0.1,0.4-0.1,0.6C54.7,77.4,54.8,77.6,54.9,77.8 M56.3,76.2
		c0.2,0,0.4,0,0.5,0.1c0.1,0.1,0.2,0.2,0.2,0.4c0,0.2-0.1,0.3-0.2,0.4c-0.1,0.1-0.2,0.1-0.4,0.2l0.6,0.9h-0.3l-0.6-0.9h-0.3v0.9
		h-0.3v-2H56.3z M56.1,77.1c0.1,0,0.1,0,0.2,0c0.1,0,0.1,0,0.2,0c0.1,0,0.1-0.1,0.1-0.1c0,0,0-0.1,0-0.2c0-0.1,0-0.1,0-0.2
		c0,0-0.1-0.1-0.1-0.1c0,0-0.1,0-0.1,0c-0.1,0-0.1,0-0.2,0h-0.4v0.7H56.1z"/>
	<path class="st0" d="M7.2,3.4C7,3.2,6.9,3,6.6,2.8C6.4,2.7,6.2,2.5,6,2.4C5.7,2.3,5.4,2.3,5.1,2.3c-0.5,0-1,0.1-1.3,0.3
		C3.5,2.8,3.2,3.1,2.9,3.4C2.7,3.8,2.6,4.1,2.5,4.6C2.4,5,2.3,5.5,2.3,5.9c0,0.4,0.1,0.9,0.2,1.3C2.6,7.7,2.7,8,2.9,8.4
		C3.2,8.7,3.5,9,3.8,9.2c0.4,0.2,0.8,0.3,1.3,0.3c0.7,0,1.3-0.2,1.6-0.7c0.4-0.4,0.6-1,0.7-1.7h2.2C9.7,7.8,9.5,8.4,9.3,8.9
		c-0.2,0.5-0.6,1-1,1.4c-0.4,0.4-0.9,0.7-1.4,0.9c-0.5,0.2-1.1,0.3-1.8,0.3c-0.8,0-1.5-0.1-2.2-0.4c-0.6-0.3-1.2-0.7-1.6-1.2
		c-0.4-0.5-0.8-1.1-1-1.7C0.1,7.4,0,6.7,0,5.9c0-0.8,0.1-1.5,0.4-2.2c0.2-0.7,0.6-1.3,1-1.8C1.8,1.4,2.3,1,3,0.8
		c0.6-0.3,1.4-0.4,2.2-0.4c0.6,0,1.1,0.1,1.6,0.3c0.5,0.2,1,0.4,1.4,0.7c0.4,0.3,0.7,0.7,1,1.2c0.3,0.5,0.4,1,0.5,1.6H7.4
		C7.4,3.9,7.3,3.6,7.2,3.4"/>
	<path class="st0" d="M15.1,5.3c-0.2-0.3-0.6-0.4-1.1-0.4c-0.3,0-0.6,0.1-0.8,0.2c-0.2,0.1-0.4,0.3-0.5,0.4
		c-0.1,0.2-0.2,0.3-0.3,0.5c-0.1,0.2-0.1,0.4-0.1,0.5h3.4C15.5,6,15.3,5.6,15.1,5.3 M12.7,9.3c0.3,0.3,0.8,0.5,1.3,0.5
		c0.4,0,0.8-0.1,1.1-0.3c0.3-0.2,0.5-0.4,0.6-0.7h1.8c-0.3,0.9-0.7,1.6-1.3,2c-0.6,0.4-1.3,0.6-2.2,0.6c-0.6,0-1.1-0.1-1.6-0.3
		c-0.5-0.2-0.9-0.5-1.2-0.8c-0.3-0.4-0.6-0.8-0.8-1.3c-0.2-0.5-0.3-1-0.3-1.6c0-0.6,0.1-1.1,0.3-1.6c0.2-0.5,0.5-0.9,0.8-1.3
		c0.3-0.4,0.7-0.6,1.2-0.9c0.5-0.2,1-0.3,1.6-0.3c0.6,0,1.2,0.1,1.7,0.4c0.5,0.3,0.9,0.6,1.2,1c0.3,0.4,0.5,0.9,0.7,1.5
		c0.1,0.5,0.2,1.1,0.1,1.7h-5.5C12.2,8.5,12.4,9,12.7,9.3"/>
	<path class="st0" d="M20.6,3.5v1.4h0c0.1-0.2,0.2-0.5,0.4-0.7c0.2-0.2,0.4-0.4,0.6-0.5c0.2-0.1,0.4-0.3,0.7-0.3
		c0.2-0.1,0.5-0.1,0.8-0.1c0.1,0,0.3,0,0.5,0.1v2c-0.1,0-0.2,0-0.4-0.1c-0.1,0-0.3,0-0.4,0c-0.4,0-0.7,0.1-1,0.2
		c-0.3,0.1-0.5,0.3-0.6,0.5c-0.2,0.2-0.3,0.5-0.3,0.8c-0.1,0.3-0.1,0.6-0.1,1v3.5h-2.1V3.5H20.6z"/>
	<path class="st0" d="M29,3.5v1.4h-1.5v3.8c0,0.4,0.1,0.6,0.2,0.7c0.1,0.1,0.4,0.2,0.7,0.2c0.1,0,0.2,0,0.3,0c0.1,0,0.2,0,0.3,0v1.6
		c-0.2,0-0.4,0-0.6,0.1c-0.2,0-0.4,0-0.6,0c-0.3,0-0.6,0-0.9-0.1c-0.3,0-0.5-0.1-0.8-0.3c-0.2-0.1-0.4-0.3-0.5-0.6
		c-0.1-0.2-0.2-0.5-0.2-0.9V4.9h-1.3V3.5h1.3V1.2h2.1v2.3H29z"/>
	<path class="st0" d="M32.3,11.2h-2.1V3.5h2.1V11.2z M30.3,0.6h2.1v1.7h-2.1V0.6z"/>
	<path class="st0" d="M33.2,4.9V3.5h1.2V2.9c0-0.7,0.2-1.2,0.6-1.7c0.4-0.4,1.1-0.7,1.9-0.7c0.2,0,0.4,0,0.6,0c0.2,0,0.4,0,0.5,0
		v1.6c-0.2,0-0.5,0-0.8,0c-0.3,0-0.5,0.1-0.6,0.2c-0.1,0.1-0.2,0.4-0.2,0.7v0.5h1.4v1.4h-1.4v6.3h-2.1V4.9H33.2z"/>
	<path class="st0" d="M41.4,11.2h-2.1V3.5h2.1V11.2z M39.3,0.6h2.1v1.7h-2.1V0.6z"/>
	<path class="st0" d="M47,5.3c-0.2-0.3-0.6-0.4-1.1-0.4c-0.3,0-0.6,0.1-0.8,0.2c-0.2,0.1-0.4,0.3-0.5,0.4c-0.1,0.2-0.2,0.3-0.3,0.5
		c-0.1,0.2-0.1,0.4-0.1,0.5h3.4C47.5,6,47.3,5.6,47,5.3 M44.7,9.3C45,9.7,45.4,9.8,46,9.8c0.4,0,0.8-0.1,1.1-0.3
		c0.3-0.2,0.5-0.4,0.6-0.7h1.8c-0.3,0.9-0.7,1.6-1.3,2c-0.6,0.4-1.3,0.6-2.2,0.6c-0.6,0-1.1-0.1-1.6-0.3c-0.5-0.2-0.9-0.5-1.2-0.8
		c-0.3-0.4-0.6-0.8-0.8-1.3c-0.2-0.5-0.3-1-0.3-1.6c0-0.6,0.1-1.1,0.3-1.6c0.2-0.5,0.4-0.9,0.8-1.3s0.7-0.6,1.2-0.9
		c0.5-0.2,1-0.3,1.6-0.3c0.6,0,1.2,0.1,1.7,0.4c0.5,0.3,0.9,0.6,1.2,1c0.3,0.4,0.5,0.9,0.7,1.5c0.1,0.5,0.2,1.1,0.1,1.7h-5.5
		C44.2,8.5,44.4,9,44.7,9.3"/>
	<path class="st0" d="M55.8,6.4c-0.1-0.3-0.2-0.6-0.3-0.8c-0.1-0.2-0.3-0.4-0.5-0.5c-0.2-0.1-0.5-0.2-0.8-0.2
		c-0.3,0-0.6,0.1-0.9,0.2c-0.2,0.1-0.4,0.3-0.6,0.6c-0.1,0.2-0.2,0.5-0.3,0.8c-0.1,0.3-0.1,0.6-0.1,0.9c0,0.3,0,0.6,0.1,0.9
		c0.1,0.3,0.2,0.6,0.3,0.8c0.2,0.2,0.3,0.4,0.6,0.6c0.2,0.1,0.5,0.2,0.8,0.2c0.3,0,0.6-0.1,0.9-0.2c0.2-0.1,0.4-0.3,0.5-0.6
		c0.1-0.2,0.2-0.5,0.3-0.8c0.1-0.3,0.1-0.6,0.1-0.9S55.9,6.7,55.8,6.4 M55.9,10.2c-0.2,0.4-0.6,0.7-1,0.9c-0.4,0.2-0.8,0.3-1.3,0.3
		c-0.6,0-1.1-0.1-1.5-0.3c-0.4-0.2-0.8-0.5-1.1-0.9c-0.3-0.4-0.5-0.8-0.6-1.3c-0.1-0.5-0.2-1-0.2-1.5c0-0.5,0.1-1,0.2-1.5
		c0.1-0.5,0.4-0.9,0.6-1.3c0.3-0.4,0.6-0.7,1-0.9c0.4-0.2,0.9-0.3,1.5-0.3c0.4,0,0.9,0.1,1.3,0.3c0.4,0.2,0.7,0.5,1,0.9h0V0.6h2.1
		v10.6h-2L55.9,10.2L55.9,10.2z"/>
	<path class="st0" d="M5.2,92.8c-0.1-0.7-0.8-1.3-1.6-1.3c-1.5,0-2,1.3-2,2.6c0,1.2,0.5,2.5,2,2.5c1,0,1.5-0.7,1.7-1.7h1.6
		c-0.2,1.9-1.4,3.1-3.2,3.1c-2.3,0-3.6-1.7-3.6-3.9c0-2.2,1.3-3.9,3.6-3.9c1.6,0,3,1,3.2,2.7H5.2z"/>
	<path class="st0" d="M10.2,96.8c1,0,1.3-0.9,1.3-1.7c0-0.9-0.3-1.7-1.3-1.7c-1,0-1.3,0.9-1.3,1.7C8.9,95.9,9.2,96.8,10.2,96.8
		 M10.2,92.2c1.7,0,2.8,1.1,2.8,2.9c0,1.7-1.1,2.8-2.8,2.8c-1.7,0-2.8-1.1-2.8-2.8C7.5,93.3,8.6,92.2,10.2,92.2"/>
	<path class="st0" d="M13.9,92.3h1.4v1h0c0.3-0.7,1-1.2,1.7-1.2c0.1,0,0.2,0,0.3,0.1v1.4c-0.1,0-0.4-0.1-0.5-0.1
		c-1.1,0-1.4,0.8-1.4,1.7v2.4h-1.5V92.3z"/>
	<path class="st0" d="M21.9,95.1c0-0.9-0.3-1.7-1.3-1.7c-1,0-1.3,0.9-1.3,1.7c0,0.9,0.3,1.7,1.3,1.7C21.5,96.8,21.9,96,21.9,95.1
		 M17.9,92.4h1.4V93h0c0.3-0.6,0.9-0.8,1.6-0.8c1.7,0,2.4,1.4,2.4,2.9c0,1.4-0.8,2.8-2.3,2.8c-0.6,0-1.2-0.3-1.6-0.8h0v2.6h-1.5
		V92.4z"/>
	<path class="st0" d="M26.5,96.8c1,0,1.3-0.9,1.3-1.7c0-0.9-0.3-1.7-1.3-1.7c-1,0-1.3,0.9-1.3,1.7C25.2,95.9,25.5,96.8,26.5,96.8
		 M26.5,92.2c1.7,0,2.8,1.1,2.8,2.9c0,1.7-1.1,2.8-2.8,2.8c-1.7,0-2.8-1.1-2.8-2.8C23.8,93.3,24.9,92.2,26.5,92.2"/>
	<path class="st0" d="M30.2,92.3h1.4v1h0c0.3-0.7,1-1.2,1.7-1.2c0.1,0,0.2,0,0.3,0.1v1.4c-0.1,0-0.4-0.1-0.5-0.1
		c-1.1,0-1.4,0.8-1.4,1.7v2.4h-1.5V92.3z"/>
	<path class="st0" d="M37.4,95.1c-0.2,0.2-0.8,0.2-1.2,0.3c-0.5,0.1-0.9,0.3-0.9,0.8c0,0.6,0.4,0.7,0.9,0.7c1.1,0,1.2-0.9,1.2-1.2
		V95.1z M34.1,94c0.1-1.4,1.3-1.8,2.5-1.8c1.1,0,2.3,0.2,2.3,1.5v2.8c0,0.5,0.1,1,0.2,1.2h-1.5c0-0.2-0.1-0.3-0.1-0.5
		c-0.5,0.5-1.1,0.7-1.8,0.7c-1,0-1.8-0.5-1.8-1.6c0-1.2,0.9-1.5,1.8-1.6c0.9-0.1,1.7-0.1,1.7-0.7c0-0.6-0.4-0.7-0.9-0.7
		c-0.6,0-0.9,0.2-1,0.8H34.1z"/>
	<path class="st0" d="M41.9,92.4h1.1v1h-1.1V96c0,0.5,0.1,0.6,0.6,0.6c0.2,0,0.3,0,0.5,0v1.2c-0.2,0-0.6,0.1-0.9,0.1
		c-0.9,0-1.7-0.2-1.7-1.3v-3.2h-0.9v-1h0.9v-1.6h1.5V92.4z"/>
	<path class="st0" d="M44,92.4h1.5v5.4H44V92.4z M45.5,91.5H44v-1.2h1.5V91.5z"/>
	<path class="st0" d="M49.2,96.8c1,0,1.3-0.9,1.3-1.7c0-0.9-0.3-1.7-1.3-1.7c-1,0-1.3,0.9-1.3,1.7C47.9,95.9,48.2,96.8,49.2,96.8
		 M49.2,92.2c1.7,0,2.8,1.1,2.8,2.9c0,1.7-1.1,2.8-2.8,2.8c-1.7,0-2.7-1.1-2.7-2.8C46.5,93.3,47.6,92.2,49.2,92.2"/>
	<path class="st0" d="M52.9,92.4h1.4v0.8h0c0.4-0.6,1-0.9,1.6-0.9c1.6,0,1.9,0.9,1.9,2.2v3.3h-1.5v-3.1c0-0.9-0.3-1.3-0.9-1.3
		c-0.8,0-1.1,0.5-1.1,1.6v2.8h-1.5V92.4z"/>
</g>
</svg>
